<svg xmlns="http://www.w3.org/2000/svg" viewBox="0 0 32 32" width="32" height="32">
  <defs>
    <linearGradient id="gradLeft" x1="0%" y1="0%" x2="0%" y2="100%">
      <stop offset="0%" stop-color="#FF6B00"/>
      <stop offset="100%" stop-color="#FF0055"/>
    </linearGradient>
    
    <linearGradient id="gradDiag" x1="0%" y1="0%" x2="100%" y2="100%">
      <stop offset="0%" stop-color="#FF0055"/>
      <stop offset="100%" stop-color="#6B00FF"/>
    </linearGradient>
    
    <linearGradient id="gradRight" x1="0%" y1="100%" x2="0%" y2="0%">
      <stop offset="0%" stop-color="#6B00FF"/>
      <stop offset="100%" stop-color="#D900FF"/>
    </linearGradient>
  </defs>

  <circle cx="16" cy="16" r="16" fill="#1c1c1e" />

  <g stroke-width="0.4" stroke-linejoin="round">
    <path 
      d="M 6 24 L 6 14 C 6 10, 9 8, 12.5 11.5 L 11 14 C 10.5 13.5, 10 14.5, 10 15 L 10 20 Z" 
      fill="url(#gradLeft)" 
      stroke="url(#gradLeft)" 
    />
    
    <path 
      d="M 12.5 11.5 L 21 20 L 19.5 22.5 L 11 14 Z" 
      fill="url(#gradDiag)" 
      stroke="url(#gradDiag)" 
    />
    
    <path 
      d="M 19.5 22.5 C 23 26, 26 24, 26 20 L 26 8 L 22 12 L 22 19 C 22 19.5, 21.5 20.5, 21 20 Z" 
      fill="url(#gradRight)" 
      stroke="url(#gradRight)" 
    />
  </g>

  <g fill="#FFFFFF">
    <circle cx="8" cy="21" r="0.4" opacity="0.6"/>
    <circle cx="8.8" cy="22.5" r="0.25" opacity="0.4"/>
    <circle cx="7.5" cy="17" r="0.3" opacity="0.5"/>
    
    <circle cx="15.5" cy="16.5" r="0.3" opacity="0.5"/>
    <circle cx="18" cy="19.5" r="0.4" opacity="0.6"/>
    
    <circle cx="24" cy="14" r="0.45" opacity="0.7"/>
    <circle cx="24.8" cy="17.5" r="0.2" opacity="0.4"/>
    <circle cx="23.2" cy="15.5" r="0.35" opacity="0.5"/>
    <circle cx="24.5" cy="11" r="0.25" opacity="0.6"/>
  </g>
</svg>
